<?xml version="1.0" encoding="utf-8"?>
<!DOCTYPE svg
  PUBLIC '-//W3C//DTD SVG 1.0//EN'
  'http://www.w3.org/TR/2001/REC-SVG-20010904/DTD/svg10.dtd'>
<svg width="1400" height="690" preserveAspectRatio="xMinYMin meet" viewBox="0 0 1400 690" xmlns="http://www.w3.org/2000/svg" version="1.0" fill-rule="evenodd" xmlns:xlink="http://www.w3.org/1999/xlink">
	<title>...</title>
	<desc>...</desc>
	<clipPath id="clip">
		<rect x="0" y="0" width="1400" height="690"/>
	</clipPath>
	<g id="group" transform="scale(1,-1) translate(0,-690)" style="clip-path: url(#clip)">
		<g transform="">
			<rect x="0" y="0" width="1400" height="690" style="stroke: none; stroke-linecap: butt; stroke-width: 2; fill: rgb(100%,100%,100%); fill-rule: evenodd;"/>
			<text x="592.15625" y="657" style="font-family: Diagram Malgun Bold; font-size: 28px;fill: rgb(12%,16%,19%); stroke:none;" transform="translate(0,1314) scale(1,-1)">라운드 단위 제어</text>
			<rect x="380" y="518" width="640" height="117" rx="2" ry="2" style="stroke: rgb(70%,74%,78%); stroke-linecap: butt; stroke-width: 2; fill: rgb(100%,100%,100%); fill-rule: evenodd;"/>
			<text x="568.501708984375" y="590" style="font-family: Diagram Malgun Bold; font-size: 29px;fill: rgb(12%,16%,19%); stroke:none;" transform="translate(0,1180) scale(1,-1)">AwareNet 스케줄러</text>
			<text x="421.06884765625" y="550" style="font-family: Diagram Malgun; font-size: 23px;fill: rgb(34%,39%,43%); stroke:none;" transform="translate(0,1100) scale(1,-1)">연산 시간 · 전송 시간 · 허용 경로 → 다음 라운드 계획</text>
			<rect x="25" y="348" width="330" height="117" rx="2" ry="2" style="stroke: rgb(70%,74%,78%); stroke-linecap: butt; stroke-width: 2; fill: rgb(100%,100%,100%); fill-rule: evenodd;"/>
			<text x="92.8046875" y="420" style="font-family: Diagram Malgun Bold; font-size: 29px;fill: rgb(50%,39%,63%); stroke:none;" transform="translate(0,840) scale(1,-1)">모델 조절 모듈</text>
			<text x="79.3125" y="380" style="font-family: Diagram Malgun; font-size: 23px;fill: rgb(34%,39%,43%); stroke:none;" transform="translate(0,760) scale(1,-1)">부분 모델 선택 · 집계</text>
			<rect x="535" y="348" width="330" height="117" rx="2" ry="2" style="stroke: rgb(70%,74%,78%); stroke-linecap: butt; stroke-width: 2; fill: rgb(100%,100%,100%); fill-rule: evenodd;"/>
			<text x="602.8046875" y="420" style="font-family: Diagram Malgun Bold; font-size: 29px;fill: rgb(3%,49%,51%); stroke:none;" transform="translate(0,840) scale(1,-1)">전송 제어 모듈</text>
			<text x="589.3125" y="380" style="font-family: Diagram Malgun; font-size: 23px;fill: rgb(34%,39%,43%); stroke:none;" transform="translate(0,760) scale(1,-1)">중계 선택 · 조각 배분</text>
			<rect x="1045" y="348" width="330" height="117" rx="2" ry="2" style="stroke: rgb(70%,74%,78%); stroke-linecap: butt; stroke-width: 2; fill: rgb(100%,100%,100%); fill-rule: evenodd;"/>
			<text x="1112.8046875" y="420" style="font-family: Diagram Malgun Bold; font-size: 29px;fill: rgb(20%,41%,59%); stroke:none;" transform="translate(0,840) scale(1,-1)">상태 수집 모듈</text>
			<text x="1080.35546875" y="380" style="font-family: Diagram Malgun; font-size: 23px;fill: rgb(34%,39%,43%); stroke:none;" transform="translate(0,760) scale(1,-1)">클라이언트 · 연결별 계측</text>
			<path d="M 700,518 L 700,495 Z" style="stroke: rgb(34%,39%,43%); stroke-linecap: butt; stroke-width: 3; stroke-dasharray: 9, 7;"/>
			<path d="M 700,495 L 190,495 Z" style="stroke: rgb(34%,39%,43%); stroke-linecap: butt; stroke-width: 3; stroke-dasharray: 9, 7;"/>
			<path d="M 190,495 L 190,471 Z" style="stroke: rgb(34%,39%,43%); stroke-linecap: butt; stroke-width: 3; stroke-dasharray: 9, 7;"/>
			<polygon points="190 471, 195 484, 185 484" style="stroke: none; stroke-linecap: butt; stroke-width: 1; fill: rgb(34%,39%,43%); fill-rule: evenodd;"/>
			<path d="M 700,518 L 700,495 Z" style="stroke: rgb(34%,39%,43%); stroke-linecap: butt; stroke-width: 3; stroke-dasharray: 9, 7;"/>
			<path d="M 700,495 L 700,495 Z" style="stroke: rgb(34%,39%,43%); stroke-linecap: butt; stroke-width: 3; stroke-dasharray: 9, 7;"/>
			<path d="M 700,495 L 700,471 Z" style="stroke: rgb(34%,39%,43%); stroke-linecap: butt; stroke-width: 3; stroke-dasharray: 9, 7;"/>
			<polygon points="700 471, 705 484, 695 484" style="stroke: none; stroke-linecap: butt; stroke-width: 1; fill: rgb(34%,39%,43%); fill-rule: evenodd;"/>
			<path d="M 1210,471 L 1210,578 Z" style="stroke: rgb(20%,41%,59%); stroke-linecap: butt; stroke-width: 3; stroke-dasharray: 9, 7;"/>
			<path d="M 1210,578 L 1025,578 Z" style="stroke: rgb(20%,41%,59%); stroke-linecap: butt; stroke-width: 3; stroke-dasharray: 9, 7;"/>
			<polygon points="1025 578, 1038 573, 1038 583" style="stroke: none; stroke-linecap: butt; stroke-width: 1; fill: rgb(20%,41%,59%); fill-rule: evenodd;"/>
			<rect x="25" y="85" width="330" height="200" rx="7" ry="7" style="stroke: rgb(70%,74%,78%); stroke-linecap: butt; stroke-width: 2; fill: none; fill-rule: evenodd; stroke-dasharray: 10, 7;"/>
			<text x="45" y="240" style="font-family: Diagram Malgun Bold; font-size: 29px;fill: rgb(12%,16%,19%); stroke:none;" transform="translate(0,480) scale(1,-1)">클라이언트</text>
			<rect x="77" y="135" width="18" height="70" style="stroke: rgb(70%,74%,78%); stroke-linecap: butt; stroke-width: 2; fill: rgb(96%,96%,97%); fill-rule: evenodd;"/>
			<rect x="77" y="135.0" width="18" height="52.5" style="stroke: rgb(50%,39%,63%); stroke-linecap: butt; stroke-width: 2; fill: rgb(50%,39%,63%); fill-rule: evenodd;"/>
			<rect x="103" y="135" width="18" height="70" style="stroke: rgb(70%,74%,78%); stroke-linecap: butt; stroke-width: 2; fill: rgb(96%,96%,97%); fill-rule: evenodd;"/>
			<rect x="103" y="135.0" width="18" height="52.5" style="stroke: rgb(50%,39%,63%); stroke-linecap: butt; stroke-width: 2; fill: rgb(50%,39%,63%); fill-rule: evenodd;"/>
			<rect x="129" y="135" width="18" height="70" style="stroke: rgb(70%,74%,78%); stroke-linecap: butt; stroke-width: 2; fill: rgb(96%,96%,97%); fill-rule: evenodd;"/>
			<rect x="129" y="135.0" width="18" height="52.5" style="stroke: rgb(50%,39%,63%); stroke-linecap: butt; stroke-width: 2; fill: rgb(50%,39%,63%); fill-rule: evenodd;"/>
			<rect x="155" y="135" width="18" height="70" style="stroke: rgb(70%,74%,78%); stroke-linecap: butt; stroke-width: 2; fill: rgb(96%,96%,97%); fill-rule: evenodd;"/>
			<rect x="155" y="135.0" width="18" height="52.5" style="stroke: rgb(50%,39%,63%); stroke-linecap: butt; stroke-width: 2; fill: rgb(50%,39%,63%); fill-rule: evenodd;"/>
			<text x="190.5" y="161" style="font-family: Diagram Malgun; font-size: 25px;fill: rgb(12%,16%,19%); stroke:none;" transform="translate(0,322) scale(1,-1)">앞부분</text>
			<rect x="564" y="186" width="272" height="69" rx="2" ry="2" style="stroke: rgb(70%,74%,78%); stroke-linecap: butt; stroke-width: 2; fill: rgb(100%,100%,100%); fill-rule: evenodd;"/>
			<text x="655.699951171875" y="210" style="font-family: Diagram Malgun Bold; font-size: 29px;fill: rgb(3%,49%,51%); stroke:none;" transform="translate(0,420) scale(1,-1)">중계 A</text>
			<rect x="564" y="80" width="272" height="69" rx="2" ry="2" style="stroke: rgb(70%,74%,78%); stroke-linecap: butt; stroke-width: 2; fill: rgb(100%,100%,100%); fill-rule: evenodd;"/>
			<text x="656.662841796875" y="104" style="font-family: Diagram Malgun Bold; font-size: 29px;fill: rgb(3%,49%,51%); stroke:none;" transform="translate(0,208) scale(1,-1)">중계 B</text>
			<rect x="1045" y="85" width="330" height="200" rx="7" ry="7" style="stroke: rgb(70%,74%,78%); stroke-linecap: butt; stroke-width: 2; fill: none; fill-rule: evenodd; stroke-dasharray: 10, 7;"/>
			<text x="1065" y="240" style="font-family: Diagram Malgun Bold; font-size: 29px;fill: rgb(12%,16%,19%); stroke:none;" transform="translate(0,480) scale(1,-1)">학습 서버</text>
			<text x="1084.93896484375" y="186" style="font-family: Diagram Malgun; font-size: 25px;fill: rgb(12%,16%,19%); stroke:none;" transform="translate(0,372) scale(1,-1)">재조립 → 뒷부분 학습</text>
			<text x="1096.81640625" y="127" style="font-family: Diagram Malgun; font-size: 25px;fill: rgb(12%,16%,19%); stroke:none;" transform="translate(0,254) scale(1,-1)">라운드 종료 후 집계</text>
			<path d="M 358,182 L 463,182 Z" style="stroke: rgb(3%,49%,51%); stroke-linecap: butt; stroke-width: 3;"/>
			<path d="M 463,182 L 463,220 Z" style="stroke: rgb(3%,49%,51%); stroke-linecap: butt; stroke-width: 3;"/>
			<path d="M 463,220 L 557,220 Z" style="stroke: rgb(3%,49%,51%); stroke-linecap: butt; stroke-width: 3;"/>
			<polygon points="557 220, 544 225, 544 215" style="stroke: none; stroke-linecap: butt; stroke-width: 1; fill: rgb(3%,49%,51%); fill-rule: evenodd;"/>
			<path d="M 463,182 L 463,114 Z" style="stroke: rgb(3%,49%,51%); stroke-linecap: butt; stroke-width: 3;"/>
			<path d="M 463,114 L 557,114 Z" style="stroke: rgb(3%,49%,51%); stroke-linecap: butt; stroke-width: 3;"/>
			<polygon points="557 114, 544 119, 544 109" style="stroke: none; stroke-linecap: butt; stroke-width: 1; fill: rgb(3%,49%,51%); fill-rule: evenodd;"/>
			<path d="M 839,220 L 947,220 Z" style="stroke: rgb(3%,49%,51%); stroke-linecap: butt; stroke-width: 3;"/>
			<path d="M 947,220 L 947,182 Z" style="stroke: rgb(3%,49%,51%); stroke-linecap: butt; stroke-width: 3;"/>
			<path d="M 947,182 L 1039,182 Z" style="stroke: rgb(3%,49%,51%); stroke-linecap: butt; stroke-width: 3;"/>
			<polygon points="1039 182, 1026 187, 1026 177" style="stroke: none; stroke-linecap: butt; stroke-width: 1; fill: rgb(3%,49%,51%); fill-rule: evenodd;"/>
			<path d="M 839,114 L 947,114 Z" style="stroke: rgb(3%,49%,51%); stroke-linecap: butt; stroke-width: 3;"/>
			<path d="M 947,114 L 947,182 Z" style="stroke: rgb(3%,49%,51%); stroke-linecap: butt; stroke-width: 3;"/>
			<text x="411.37890625" y="288" style="font-family: Diagram Malgun; font-size: 24px;fill: rgb(3%,49%,51%); stroke:none;" transform="translate(0,576) scale(1,-1)">활성값 →</text>
			<path d="M 190,345 L 190,290 Z" style="stroke: rgb(50%,39%,63%); stroke-linecap: butt; stroke-width: 3; stroke-dasharray: 9, 7;"/>
			<polygon points="190 290, 195 303, 185 303" style="stroke: none; stroke-linecap: butt; stroke-width: 1; fill: rgb(50%,39%,63%); fill-rule: evenodd;"/>
			<path d="M 700,345 L 700,263 Z" style="stroke: rgb(3%,49%,51%); stroke-linecap: butt; stroke-width: 3; stroke-dasharray: 9, 7;"/>
			<polygon points="700 263, 705 276, 695 276" style="stroke: none; stroke-linecap: butt; stroke-width: 1; fill: rgb(3%,49%,51%); fill-rule: evenodd;"/>
			<path d="M 1210,289 L 1210,342 Z" style="stroke: rgb(20%,41%,59%); stroke-linecap: butt; stroke-width: 3; stroke-dasharray: 9, 7;"/>
			<polygon points="1210 342, 1205 329, 1215 329" style="stroke: none; stroke-linecap: butt; stroke-width: 1; fill: rgb(20%,41%,59%); fill-rule: evenodd;"/>
			<path d="M 1045,100 L 945,100 Z" style="stroke: rgb(20%,41%,59%); stroke-linecap: butt; stroke-width: 3;"/>
			<path d="M 945,100 L 945,56 Z" style="stroke: rgb(20%,41%,59%); stroke-linecap: butt; stroke-width: 3;"/>
			<path d="M 945,56 L 455,56 Z" style="stroke: rgb(20%,41%,59%); stroke-linecap: butt; stroke-width: 3;"/>
			<path d="M 455,56 L 455,100 Z" style="stroke: rgb(20%,41%,59%); stroke-linecap: butt; stroke-width: 3;"/>
			<path d="M 455,100 L 359,100 Z" style="stroke: rgb(20%,41%,59%); stroke-linecap: butt; stroke-width: 3;"/>
			<polygon points="359 100, 372 95, 372 105" style="stroke: none; stroke-linecap: butt; stroke-width: 1; fill: rgb(20%,41%,59%); fill-rule: evenodd;"/>
			<text x="635.78125" y="17" style="font-family: Diagram Malgun; font-size: 24px;fill: rgb(20%,41%,59%); stroke:none;" transform="translate(0,34) scale(1,-1)">기울기 반환</text>
		</g>
	</g>
</svg>
